<svg xmlns="http://www.w3.org/2000/svg" xmlns:xlink="http://www.w3.org/1999/xlink" viewBox="0 0 45 45"><g fill="#f9cda5"><path d="M37.6 26.7c0-.6-.1-1.1-.4-1.6V25c0-1.7-1-3.1-2.4-3.8-.3-1.1-1.1-2-2.1-2.5-.5-1.6-1.9-2.7-3.6-2.9a4.22 4.22 0 0 0-3.3-1.6c-.3 0-.6 0-.8.1-.7-.6-1.6-.8-2.5-.8-1 0-1.9.3-2.7.9-.2 0-.4-.1-.7-.1-1.5 0-2.9.8-3.7 2.1-1.7.1-3.2 1.3-3.7 2.9-1 .7-1.7 1.8-1.9 3-.5.4-.9.9-1.2 1.5-.8.9-1.3 1.9-1.3 2.9 0 .5.2 2.3.3 2.9 1 5.4 4.7 9.8 9.6 11.6v2.1c0 .5.4 1 .9 1 2.9.4 5.8.4 8.6 0 .5-.1.9-.5.9-1v-2.1c4.9-1.9 8.6-6.2 9.6-11.6.2-.4.4-2.4.4-2.9zm-24.5-6c.3-.1.4-.4.5-.6.2-1.1 1.2-1.9 2.3-1.9h.2c.4 0 .8-.2.9-.6.4-.9 1.2-1.5 2.2-1.5.2 0 .4 0 .7.1s.7 0 .9-.3c.4-.5 1.1-.7 1.7-.7s1.2.2 1.6.7c.3.3.6.3 1 .2.2-.1.5-.1.8-.1.8 0 1.6.4 2 1.1.2.3.5.4.8.4 1.1 0 2.1.8 2.3 1.9.1.3.3.6.6.7a3.16 3.16 0 0 1 1.4 1.4c0 .1.1.3.1.4.1.4.3.7.6.8 1 .3 1.6 1.2 1.6 2.2v.1c0 .3-.1.7-.2 1s-.1.7.1 1l.1.1c-.2 1-1.4 2-3.3 2.8-1.4.6-3 1-4.9 1.3-.4.1-.9.1-1.3.2-1 .1-2.1.2-3.2.2h-1.2-.8c-1.4-.1-2.7-.3-4-.5-.5-.1-.9-.2-1.3-.3-.8-.2-1.5-.5-2.2-.7-1.9-1.1-3.1-2.1-3.4-3 .1-.1.2-.2.2-.3.2-.2.3-.5.2-.8v-.3-.1c0-.6.3-1.2.7-1.6.1-.1.3-.2.4-.3.3-.2.5-.5.5-.8 0-.5.1-.9.4-1.3s.6-.7 1-.9zm2.2 4a.68.68 0 0 1-.7-.7 3.01 3.01 0 0 1 3-3c.4 0 .7.1 1 .2.7-.8 1.6-1.2 2.7-1.2.9 0 1.8.4 2.5 1.1.3.3.3.7 0 1s-.7.3-1 0c-.4-.4-.9-.6-1.5-.6-.8 0-1.4.4-1.8 1.1-.1.2-.3.3-.5.4-.2 0-.4 0-.6-.1-.3-.2-.6-.3-.9-.3a1.54 1.54 0 0 0-1.5 1.5c0 .3-.3.6-.7.6zm14.2 3.7c-.3 0-.6-.2-.7-.5a1.44 1.44 0 0 0-.9-1.1 2.12 2.12 0 0 0-1.9 0c-.2.1-.4.1-.6.1-.2-.1-.4-.2-.4-.4-.1-.2-.3-.5-.5-.6-.7-.4-1.5-.2-1.9.5-.2.3-.6.5-1 .3-.3-.2-.5-.6-.3-1 .8-1.3 2.5-1.8 3.8-1 .3.2.5.4.7.6.9-.3 1.9-.2 2.7.2s1.3 1.2 1.5 2c.1.4-.1.8-.5.9h0zM15.8 10c-.2 0-.3 0-.5-.1-.4-.3-.5-.9-.3-1.4.2-.3.8-1.4-.2-3.1-1.3-2.3.2-4.6.3-4.7a.95.95 0 0 1 1.3-.2.95.95 0 0 1 .2 1.3c0 .1-.9 1.4-.2 2.7.7 1.2 1.3 3 .2 5-.1.3-.5.5-.8.5z"/><use xlink:href="#B"/><use xlink:href="#B" x="6.7"/></g><defs ><path id="B" d="M22.6 10c-.2 0-.3 0-.5-.1-.4-.3-.6-.8-.3-1.3.2-.3.8-1.4-.2-3.1-1.3-2.3.2-4.6.3-4.7a.95.95 0 0 1 1.3-.2.95.95 0 0 1 .2 1.3c0 .1-.9 1.4-.2 2.7.7 1.2 1.3 3 .2 5-.2.2-.5.4-.8.4z"/></defs></svg>