<svg xmlns="http://www.w3.org/2000/svg" viewBox="0 0 45 45" fill="#f9cda5"><path d="M1.1 20.5v12.4c0 .5.3.9.8 1.1l16.9 8.4c.2.1.4.2.6.2.7 0 1.2-.5 1.2-1.2v-.1l5.4-1.2c.1 0 .3 0 .4-.1l5.4-1.2c.6-.1 1-.6 1-1.2V37h.1c.2-.1.3-.3.5-.4l.5-.4.5-.4.5-.4 1.8-1.7c.6-.6 1.2-1.2 1.7-1.9s1.1-1.3 1.6-2 1-1.4 1.4-2.2l.6-1.2.6-1.2c.2-.4.4-.8.5-1.3.2-.4.3-.9.4-1.3l.5-2.8c.1-1 0-2-.2-3s-.5-2-1-3c-.5-.9-1.1-1.8-1.8-2.5l-1.1-1-.1-.1-.4-.2c-.1-.1-.2-.2-.3-.2-.2-.2-.5-.3-.7-.4-.5-.3-1-.5-1.5-.6-.3-.1-.5-.2-.8-.2-.3-.1-.5-.1-.8-.2-.3 0-.5-.1-.8-.1h-.7-.7-.4-.4c-1 .1-1.9.4-2.7.7-.1 0-.2.1-.3.1s-.2.1-.3.1l-.6.3c-.1.1-.2.1-.3.2s-.2.1-.3.2-.2.1-.3.2l-.1.1-.1.1h0c-.1.1-.2.1-.3.2l-6.1-3c.1 0 .2 0 .3-.1a21.59 21.59 0 0 1 3.5-.3c.6 0 1.1 0 1.6.1.3 0 .5.1.7.1.1 0 .2.1.4.1.1 0 .2.1.3.1.2-.1.3-.2.5-.2.1-.1.2-.1.3-.2h0c.1 0 .2-.1.4-.1h0c1.1-.4 2.1-.7 3.2-.8h.4 0 .4.8s0-.1-.1-.1c-.5-.7-1.1-1.3-1.8-1.9-.2-.1-.4-.3-.6-.4l-.2-.1c-.1 0-.1-.1-.2-.1s-.1-.1-.2-.1h-.1-.1c-.4-.2-.8-.3-1.2-.5-.2-.1-.4-.1-.6-.2s-.4-.1-.6-.1c-.4-.1-.8-.1-1.2-.2-.8-.1-1.6 0-2.4 0A15.89 15.89 0 0 0 20 3.7a4.67 4.67 0 0 0-1 .5c-.2.1-.3.2-.5.3s-.3.2-.5.3l-.9.6c-.1.1-.3.2-.4.3l-1.7-1c-.2-.1-.5-.1-.7-.1-.1 0-3.3.5-6.6 2.7-3 2-6.6 6-6.6 13.2zm27.1-6.6c-1 .4-2.2 1-3.4 1.8-2.4 1.6-5.1 4.4-6.1 9v.1c-.3 1.2-.4 2.6-.4 4.1v2.7L3.5 24.4v-3.9c0-4.9 1.9-8.7 5.5-11.3 2.2-1.5 4.4-2.1 5.2-2.3l14 7zm-6.6 9.6c.9-2.3 2.4-4.3 4.6-5.7 1.6-1.1 3.1-1.7 4.2-2v5.8l-8.8 1.9zm11.2 9.9V14.2v-.1-.1-.1-.1-.1-.1-.1-.1l-.1-.1s-.1 0-.1-.1h-.1-.1l-.9-.4c.5 0 .9 0 1.3.1.3 0 .6.1.9.1.3.1.6.1.9.2s.5.2.8.3c.1.1.2.1.4.2.1.1.2.1.3.2s.2.1.3.2c.1 0 .1.1.2.1l.1.1.1.1c.2.2.5.4.7.6s.4.4.6.7c.2.2.3.5.5.7.3.5.5 1 .6 1.6s.2 1.2.2 1.8c0 .3 0 .6-.1 1 0 .3-.1.7-.2 1-.1.7-.3 1.4-.5 2-.1.3-.2.7-.4 1-.1.3-.3.7-.4 1-.3.7-.6 1.4-1 2-.4.7-.8 1.3-1.2 2a22.63 22.63 0 0 1-1.3 2c-.7.4-1.1 1-1.5 1.6zm-2.5 3.3l-3.1.7V24.7l3.1-.7v12.7zm-9.7 2.1V29c0-1 .1-2 .2-2.9l3.9-.9v12.6l-4.1 1zM3.5 32.2v-5l14.7 7.2v5.1L3.5 32.2z"/><ellipse cx="14" cy="34.8" rx=".8" ry="1.3"/><ellipse cx="7.1" cy="31.6" rx=".8" ry="1.3"/></svg>