<svg xmlns="http://www.w3.org/2000/svg" viewBox="0 0 45 45"><path d="M44.2 30.6c-.3-.5-.8-.9-1.4-.9H28.1v-1.2c0-7.9-6.6-15.9-6.9-16.2-.6-.7-.8-2.2-.3-3l1.3-2.4c.6-1.2.6-2.4.1-3.3-.6-.9-1.6-1.5-3-1.5H9.5c-1.3 0-2.4.5-3 1.5-.5.9-.5 2.1.1 3.3l1.3 2.4c.4.9.3 2.3-.3 3-.3.3-6.9 8.2-6.9 16.2 0 6 2.2 11.1 6 14.1l.3.3h14.7l.4-.3c.8-.6 1.5-1.4 2.2-2.2v1a1.54 1.54 0 0 0 1.5 1.5h11.7a1.54 1.54 0 0 0 1.5-1.5v-3.2l4.9-6c.5-.5.6-1.1.3-1.6zm-24.8 1.6l3.7 4.5c-.7 1.2-1.5 2.3-2.5 3.1H8.1c-2.8-2.5-4.4-6.6-4.4-11.4 0-6.8 6.1-14.1 6.2-14.2 1.4-1.7 1.7-4.5.7-6.5L9.3 5.4c0-.1-.1-.2-.1-.2h.3 9.7.3c0 .1 0 .2-.1.3l-1.3 2.4c-1 1.9-.7 4.8.7 6.5.1.1 6.2 7.4 6.2 14.2v1.2h-4.4c-.6 0-1.1.3-1.4.9-.3.4-.2 1 .2 1.5zm8 7.7v-1.6H36v1.6h-8.6zm9.3-3.5h-9.9l-.1-.1-2.3-2.8-.6-.7h15.8l-2.9 3.6z" fill="#fccf00"/></svg>