<svg xmlns="http://www.w3.org/2000/svg" viewBox="0 0 45 45" fill="#fccf00"><path d="M20.5 19s-.1 0 0 0c-.4-.1-1.5-.4-3.4-3-2.6-3.5-1.5-7.2-1.5-7.4.1-.3.4-.5.7-.5h.2c.4.2.6.6.5.9 0 .1-.9 3.2 1.3 6.1.2.3.5.6.7.8l.5.6v-.8c0-1.4.3-2.4.9-3 .2-.2.4-.3.6-.3s.4.1.5.2c.2.1.4.3.6.5.3.3.7.7 1.4 1.2l.3.2.1-.4c.2-.7.3-1.8.5-3.4l.5-3c.1-.3.4-.6.7-.6h.2c.2 0 .3.2.5.3.1.2.1.4.1.5 0 0-.3 1.2-.5 2.8-.5 3.9-.8 4.9-1.5 5.2-.1.1-.2.1-.4.1s-.4-.1-.5-.2c-1-.7-1.7-1.3-2.1-1.7l-.3-.3-.1.9c-.2 1 0 2.4.2 3.4.1.2 0 .5-.2.7-.1.1-.3.2-.5.2zm-1.2 12.4a.55.55 0 0 1-.5-.3.61.61 0 0 1 0-.8l.3-.3c.6-.6 1.8-1.5 3.4-1.5h.1c1.7 0 2.9 1 3.4 1.5l.3.3a.61.61 0 0 1 0 .8.55.55 0 0 1-.5.3h-.2c-1-.4-2-.6-3-.6s-2 .2-3 .6h-.3zm-.5-8.6c-.1 0-1.7-1.2-3.9-1.2a.65.65 0 0 0-.6.6.65.65 0 0 0 .6.6c.7 0 1.3.2 1.9.3-.7.2-1.4.6-2.2 1.2-.3.2-.3.6-.1.9.1.2.3.2.5.2.1 0 .3 0 .4-.1 1.4-1.2 3.1-1.3 3.1-1.3.3 0 .5-.2.6-.5 0-.2 0-.5-.3-.7zm11.6 1.6c-.7-.6-1.5-1-2.2-1.2.5-.2 1.1-.3 1.9-.3a.65.65 0 0 0 .6-.6.65.65 0 0 0-.6-.6c-2.3 0-3.9 1.2-3.9 1.2-.2.2-.3.5-.2.7.1.3.3.5.6.5a5.79 5.79 0 0 0 3.1 1.3c.1.1.3.1.4.1.2 0 .4-.1.5-.2.2-.3.1-.7-.2-.9z"/><path d="M29.5 29.7c-.6 0-1.4-.4-1.7-1.4-.4-1.1.1-2.7.2-2.9l.2-.6.6.3c.2.1 1.6 1 2 2.1.3.7.1 1.2 0 1.6-.2.4-.5.7-.8.8-.2.1-.4.1-.5.1zm-.7-3.2c-.1.5-.2 1.1 0 1.5.2.7.7.7.7.7h.1c.1 0 .4-.4.2-1-.2-.5-.6-.9-1-1.2zm13.9-2.4c1.1-1.1 1.6-2.5 1.6-4s-.6-2.9-1.6-4c-.9-.9-2-1.5-3.2-1.7-1.2-3.1-3.4-5.9-6.2-7.9-3.1-2.2-6.9-3.3-10.8-3.3a19.38 19.38 0 0 0-10.8 3.3c-2.8 2-5 4.8-6.2 7.9-1.2.2-2.3.8-3.2 1.7-1.1 1.1-1.6 2.5-1.6 4s.6 2.9 1.6 4c.9.9 2 1.5 3.2 1.7.2.5.4 1 .7 1.5l-.3.3c-.6.7-1.4 1.5-1.4 2.7s.8 2 1.4 2.7c.3.3.6.6.7.9.1.2.2.6.3 1 .2.8.5 1.9 1.4 2.6.7.6 1.6.7 2.4.7.5 0 1 .1 1.4.3.3.1.6.5.9.8.6.6 1.2 1.3 2.1 1.6.2.1.5.1.8.1.6 0 1.1-.2 1.7-.3.4-.1.9-.2 1.2-.2h.2c.3 0 .7.3 1.1.5.7.4 1.5.9 2.4.9s1.7-.5 2.4-.9c.4-.2.8-.5 1.1-.5h.2c.3 0 .8.1 1.2.2.5.1 1.1.3 1.7.3.3 0 .5 0 .8-.1.9-.3 1.6-1 2.1-1.6.3-.3.6-.7.9-.8.3-.2.9-.2 1.4-.3.8-.1 1.7-.2 2.4-.7.9-.7 1.1-1.8 1.4-2.6.1-.4.2-.8.3-1 .2-.3.4-.6.7-.9.6-.7 1.4-1.5 1.4-2.7s-.8-2-1.4-2.7l-.3-.3c.3-.5.5-1 .7-1.5 1.2-.3 2.4-.9 3.2-1.7zm-4.2 6.2c0 .3-.5.8-.9 1.2s-.8.8-1 1.3c-.3.5-.4 1.1-.6 1.6-.2.6-.3 1.2-.6 1.5-.2.2-.8.2-1.3.3-.7.1-1.4.1-2.1.5-.6.3-1.1.8-1.6 1.3-.4.4-.8.8-1.1.9h-.2c-.3 0-.7-.1-1.1-.2-.5-.1-1.1-.3-1.8-.3h-.4c-.7.1-1.4.5-2 .8-.5.3-1 .6-1.3.6-.4 0-.8-.3-1.3-.6-.6-.3-1.2-.7-2-.8h-.4c-.6 0-1.2.2-1.8.3-.4.1-.8.2-1.1.2h-.2c-.4-.1-.8-.5-1.1-.9-.5-.5-.9-1-1.6-1.3s-1.4-.4-2.1-.5c-.5 0-1.1-.1-1.3-.3-.3-.3-.4-.9-.6-1.5-.1-.5-.3-1.1-.6-1.6s-.7-.9-1-1.3c-.4-.4-.9-.9-.9-1.2s.4-.7.8-1.1c1.2 1.7 2.7 3.2 4.4 4.4 3.1 2.2 6.9 3.3 10.8 3.3a19.38 19.38 0 0 0 10.8-3.3c1.7-1.2 3.2-2.7 4.4-4.4.4.4.8.8.8 1.1zm.2-6.7h-.8l-.2.7v.1c-.3 1-.8 2-1.4 2.9-2.8 4.5-8 7.4-13.8 7.4-5.9 0-11.1-2.9-13.8-7.4-.6-.9-1-1.9-1.4-2.9v-.1l-.3-.6h-.8c-2-.1-3.5-1.6-3.5-3.6s1.5-3.5 3.5-3.6H7l.2-.7C9.3 9.5 15.5 5.3 22.5 5.3s13.2 4.2 15.2 10.4l.2.7h.8c2 .1 3.5 1.6 3.5 3.6s-1.5 3.6-3.5 3.6z"/></svg>