<svg xmlns="http://www.w3.org/2000/svg" viewBox="0 0 45 45"><path d="M44.7 24.7H33.2c5.5-1.4 7.8-6 7.2-9.8-.3-1.9-1.2-3.5-2.5-4.6-.3-.3-.6-.5-1-.7 0 0-.1 0-.1-.1-.4-.2-.7-.4-1.1-.5h-.1c-.4-.1-.8-.3-1.3-.3-.5-.1-.9-.1-1.4-.1h-.4C28 8.8 25 11.8 23 15c-.3.4-.5.9-.7 1.3-2-3.7-5.2-7.4-10.2-7.7h-.4c-.5 0-.9 0-1.4.1-.5-.1-.9 0-1.3.2h-.1c-.4.2-.8.3-1.1.5 0 0-.1 0-.1.1-.3.2-.7.4-1 .7-1.3 1.1-2.2 2.7-2.5 4.6-.6 3.9 1.7 8.5 7.2 9.8H0V28h15.1c-1.8 1.4-4.2 2.9-7.5 4l1.6 4.7c6.6-2.2 10.4-5.6 12.6-8.6h1.1c2.2 3 6 6.4 12.6 8.6L37 32h0 0c-3.3-1.1-5.7-2.5-7.5-4h15.1v-3.3zM32.8 13.3h.2c2.1 0 2.5 1.7 2.6 2.2.2 1.7-.8 3.7-3.6 4.4-1.9.5-3.7.7-5.4.9-.4 0-.7.1-1.1.1 1.2-3.1 3.5-7.4 7.3-7.6zM9.1 15.5c.1-.5.5-2.2 2.6-2.2h.2c3.3.2 5.5 3.5 6.8 6.4.2.4.3.8.5 1.2a33.49 33.49 0 0 1-6.4-1c-3-.7-4-2.7-3.7-4.4z" fill="#fccf00" /></svg>