<svg xmlns="http://www.w3.org/2000/svg" viewBox="0 0 45 45"><path d="M42.8.4H2.2c-.2 0-.4.2-.4.5v21.4a.68.68 0 0 0 .7.7h8l3.4-10s-1.3 10.6-4.7 16.6c-4.6 7.9-6.6 10.3-6.6 10.3s4.1 4.8 19.9 4.8 19.9-4.8 19.9-4.8-2-2.4-6.6-10.3C32.3 23.7 31.1 13 31.1 13l3.4 10h8a.68.68 0 0 0 .7-.7V.9c0-.3-.2-.5-.4-.5zM11 8.3H9.1l1.3 1.3c.2.2.2.5 0 .7-.1.1-.2.1-.4.1-.1 0-.3 0-.4-.1L8.4 9v1.9a.47.47 0 0 1-.5.5.47.47 0 0 1-.5-.5V9l-1.3 1.3c-.1.1-.2.1-.4.1-.1 0-.3 0-.4-.1-.2-.2-.2-.5 0-.7l1.3-1.3H4.8a.47.47 0 0 1-.5-.5.47.47 0 0 1 .5-.5h1.9L5.4 6c-.2-.2-.2-.5 0-.7s.5-.2.7 0l1.3 1.3V4.7a.47.47 0 0 1 .5-.5.47.47 0 0 1 .5.5v1.9l1.3-1.3c.2-.2.5-.2.7 0s.2.5 0 .7L9.1 7.3H11a.47.47 0 0 1 .5.5.47.47 0 0 1-.5.5zm6.6 27.9h-1.9l1.3 1.3c.2.2.2.5 0 .7-.1.1-.2.1-.4.1-.1 0-.3 0-.4-.1L15 36.9v1.9a.47.47 0 0 1-.5.5.47.47 0 0 1-.5-.5v-1.9l-1.3 1.3c-.1.1-.2.1-.4.1-.1 0-.3 0-.4-.1-.2-.2-.2-.5 0-.7l1.3-1.3h-1.9a.47.47 0 0 1-.5-.5.47.47 0 0 1 .5-.5h1.9L12 33.9c-.2-.2-.2-.5 0-.7s.5-.2.7 0l1.3 1.3v-1.9a.47.47 0 0 1 .5-.5.47.47 0 0 1 .5.5v1.9l1.3-1.3c.2-.2.5-.2.7 0s.2.5 0 .7l-1.3 1.3h1.9a.47.47 0 0 1 .5.5c0 .3-.3.5-.5.5zm8-9.8h-.8l.6.6c.2.2.2.5 0 .7-.1.1-.2.1-.4.1-.1 0-.3 0-.4-.1l-.6-.6v.8a.47.47 0 0 1-.5.5.47.47 0 0 1-.5-.5v-.8l-.6.6c-.1.1-.2.1-.4.1-.1 0-.3 0-.4-.1-.2-.2-.2-.5 0-.7l.6-.6h-.8a.47.47 0 0 1-.5-.5.47.47 0 0 1 .5-.5h.8l-.6-.6c-.2-.2-.2-.5 0-.7s.5-.2.7 0l.6.6v-.8a.47.47 0 0 1 .5-.5.47.47 0 0 1 .5.5v.8l.6-.6c.2-.2.5-.2.7 0s.2.5 0 .7l-.6.6h.8a.47.47 0 0 1 .5.5c.2.2 0 .5-.3.5zM32 35c.2-.2.5-.2.7 0s.2.5 0 .7l-1 1h1.4a.47.47 0 0 1 .5.5.47.47 0 0 1-.5.5h-1.4l1 1c.2.2.2.5 0 .7-.1.1-.2.1-.4.1-.1 0-.3 0-.4-.1l-1-1v1.4a.47.47 0 0 1-.5.5.47.47 0 0 1-.5-.5v-1.4l-1 1c-.1.1-.2.1-.4.1-.1 0-.3 0-.4-.1-.2-.2-.2-.5 0-.7l1-1h-1.4a.47.47 0 0 1-.5-.5.47.47 0 0 1 .5-.5h1.4l-1-1c-.2-.2-.2-.5 0-.7s.5-.2.7 0l1 1v-1.4a.47.47 0 0 1 .5-.5.47.47 0 0 1 .5.5V36l1.2-1zm7.2-25.9h-1.4l1 1c.2.2.2.5 0 .7-.1.1-.2.1-.4.1s-.3 0-.4-.1l-1-1v1.4a.47.47 0 0 1-.5.5.47.47 0 0 1-.5-.5V9.8l-1 1c0 .1-.1.2-.3.2-.1 0-.3 0-.4-.1-.2-.2-.2-.5 0-.7l1-1H34a.47.47 0 0 1-.5-.5.47.47 0 0 1 .5-.5h1.4l-1-1c-.2-.2-.2-.5 0-.7s.5-.2.7 0l1 1V6a.47.47 0 0 1 .5-.5.47.47 0 0 1 .5.5v1.4l1-1c.2-.2.5-.2.7 0s.2.5 0 .7l-1 1h1.4a.47.47 0 0 1 .5.5.47.47 0 0 1-.5.5z" fill="#ef8d93"/></svg>