<svg xmlns="http://www.w3.org/2000/svg" xmlns:xlink="http://www.w3.org/1999/xlink" viewBox="0 0 45 45"><g fill="#ef8d93"><path d="M11.3 17.7c.7.5 1.4.9 2.1 1h.3c.5 0 1.1-.2 1.7-.3.7-.2 1.5-.4 2.3-.4h.3c.9.1 1.7.4 2.4.8.7.3 1.4.7 2.1.7s1.4-.3 2.1-.7c.8-.3 1.6-.7 2.4-.8h.3c.8 0 1.6.2 2.3.4.6.2 1.2.3 1.7.3h.3c.7-.1 1.3-.5 2.1-1 .7-.4 1.4-.9 2.2-1.1.1 0 .3-.1.4-.1v-.9c0-1.6-1.3-2.9-2.9-2.9H32V8.3a.68.68 0 0 0-.7-.7h-1.1a.68.68 0 0 0-.7.7v4.5h-5.7V8.3a.68.68 0 0 0-.7-.7H22a.68.68 0 0 0-.7.7v4.5h-5.7V8.3a.68.68 0 0 0-.7-.7h-1.1a.68.68 0 0 0-.7.7v4.5h-1.4c-1.6 0-2.9 1.3-2.9 2.9v.9c.1 0 .3.1.4.1.7.1 1.4.6 2.1 1z"/><use xlink:href="#B"/><path d="M14.2 6.9c.7 0 1.8-.5 1.8-2s-1.8-3.5-1.8-3.5-1.8 2-1.8 3.5 1.1 2 1.8 2zm0-2.4s.7.7.7 1.3-.4.7-.7.7-.7-.2-.7-.7c.1-.6.7-1.3.7-1.3z"/><use xlink:href="#B" x="8.3"/><path d="M36.3 18.3c-.5.1-1 .5-1.6.9-.8.5-1.7 1.1-2.7 1.3h-.5c-.8 0-1.5-.2-2.2-.4s-1.3-.4-1.9-.4h-.2c-.6 0-1.2.3-1.8.6-.8.4-1.8.8-2.8.8s-2-.4-2.8-.8c-.7-.3-1.3-.6-1.8-.6h-.2c-.6 0-1.2.2-1.9.4s-1.5.4-2.2.4h-.5c-1.1-.2-2-.8-2.7-1.3-.6-.4-1.1-.7-1.6-.9v7.3h27.6v-7.3zm3.1 9.2H5.6a3.12 3.12 0 0 0-3.1 3.1V33c0 .3.2.6.4.7.4.2.7.4 1 .6.8.5 1.4.9 2.7.9s1.9-.4 2.7-.9c.9-.6 1.9-1.3 3.9-1.3s3.1.7 3.9 1.3c.8.5 1.4.9 2.7.9s1.9-.4 2.7-.9c.9-.6 1.9-1.3 3.9-1.3s3.1.7 3.9 1.3c.8.5 1.4.9 2.7.9s1.9-.4 2.7-.9c.9-.6 1.9-1.3 3.9-1.3.7 0 1.4.1 2 .3h.2c.2 0 .3-.1.5-.1.2-.1.3-.4.3-.6v-2c-.1-1.7-1.5-3.1-3.2-3.1zm-2.6 8.8c-.9.6-1.9 1.3-3.9 1.3s-3.1-.7-3.9-1.3c-.8-.5-1.4-.9-2.7-.9s-1.9.4-2.7.9c-.9.6-1.9 1.3-3.9 1.3s-3.1-.7-3.9-1.3c-.8-.5-1.4-.9-2.7-.9s-1.9.4-2.7.9c-.9.6-1.9 1.3-3.9 1.3-1.1 0-1.9-.2-2.6-.5v5a1.54 1.54 0 0 0 1.5 1.5h33.9a1.54 1.54 0 0 0 1.5-1.5v-6.4c-.4-.1-.9-.2-1.5-.2-1.1-.1-1.7.3-2.5.8z"/></g><defs ><path id="B" d="M22.5 6.9c.7 0 1.8-.5 1.8-2s-1.8-3.5-1.8-3.5-1.8 2-1.8 3.5 1 2 1.8 2zm0-2.4s.7.7.7 1.3-.4.7-.7.7-.7-.2-.7-.7c0-.6.7-1.3.7-1.3z"/></defs></svg>