<svg xmlns="http://www.w3.org/2000/svg" xmlns:xlink="http://www.w3.org/1999/xlink" viewBox="0 0 45 45" xmlns:v="https://vecta.io/nano"><path d="M44.4 31.8S38 4.9 27.5 3.3h0-9 0C7.5 3.3.6 31.8.6 31.8L8.5 35l-.7 3.6 10.6 2.3v-2h8v2L37 38.6l-.6-3.6 8-3.2z" fill="#1dade5"/><g fill="#fff"><circle cx="22.3" cy="21.6" r="2.3"/><path d="M22.3 22.7c-.1 0-.1 0-.2-.1l-3.9-2.3c-.2-.1-.2-.4-.1-.5s.3-.2.5-.1l3.7 2.2 4-2.3c.2-.1.4 0 .5.1.1.2 0 .4-.1.5l-4.1 2.4c-.2 0-.3.1-.3.1z"/><path d="M18.4 41.7L7.7 39.6c-.2 0-.3-.2-.3-.5l5.3-29.6c0-.2.2-.4.5-.3.2 0 .4.2.3.5L8.2 38.9l9.8 1.9V6.6c0-.2.2-.4.4-.4s.4.2.4.4v34.7c0 .1-.1.2-.1.3-.1.1-.2.1-.3.1zm8-.7c-.1 0-.2 0-.2-.1-.1-.1-.1-.2-.1-.3v-34c0-.2.2-.4.4-.4s.4.2.4.4v33.5l9.8-1.9-5.4-28.5a.55.55 0 0 1 .3-.5.55.55 0 0 1 .5.3l5.3 28.9a.55.55 0 0 1-.3.5L26.4 41h0z"/></g><defs><path id="A" d="M44.4 32.4S38 4.9 27.5 3.3h0-9 0C7.5 3.3.6 32.5.6 32.5l7.9 3.3-.7 3.6 10.6 2.4v-2.1h8v2.1L37 39.4l-.7-3.6 8.1-3.4z"/></defs><clipPath id="B"><use xlink:href="#A"/></clipPath><g clip-path="url(#B)" fill="#fff"><path d="M18.6 15.1l-.4-.5c3.4-2.7 6.5-11.7 6.5-11.8l.6.2s-.8 2.3-2 5c-1.6 3.5-3.2 5.9-4.7 7.1z"/><path d="M18.7 16.8l-.3-.5c4.3-2.7 7.4-13.4 7.4-13.5l.6.2s-.8 2.8-2.1 5.8c-1.9 4.1-3.7 6.8-5.6 8zm3-6.6c-1.2-1.9-3.5-6.6-3.6-6.8l.5-.3 3.5 6.7-.4.4zm.7-1.3c-1.9-2.5-3.1-5.4-3.2-5.4l.5-.2s1.3 2.9 3.1 5.3l-.4.3z"/></g></svg>