<svg xmlns="http://www.w3.org/2000/svg" xmlns:xlink="http://www.w3.org/1999/xlink" viewBox="0 0 45 45"><path d="M32.3 11.3h0l-6.8-2.6-.5 2.6h-2.5H20l-.5-2.6-6.8 2.6-12.1 18 4.1 3.6 8-10v13.4h9.8 9.8V22.9l8 10 4.1-3.6z" fill="#666"/><path d="M22.5 24.8v7.5c-3.3-4.6 0-7.5 0-7.5zm0 0v-1.6l-5.5-9c0 .1-2.9 7.1 5.5 10.6zM28 14.3l-5.5 9v1.6c8.4-3.6 5.5-10.6 5.5-10.6zm-5.5 10.5v7.5c3.3-4.6 0-7.5 0-7.5z" fill="#fff"/><defs><path id="A" d="M32.3 11.3l-6.8-2.6-3 14.6z"/></defs><clipPath id="B"><use xlink:href="#A"/></clipPath><path d="M32.3 11.3l-6.8-2.6-3 14.6z" clip-path="url(#B)" fill="#666"/><g fill="#fff"><path transform="matrix(.5976 -.8018 .8018 .5976 -2.3491 28.0331)" d="M19.6 16.2h14.2v.4H19.6z" clip-path="url(#B)"/><path transform="matrix(.5976 -.8018 .8018 .5976 -.6788 27.1948)" d="M19.6 14.1h14.2v.4H19.6z" clip-path="url(#B)"/></g><defs><path id="C" d="M12.7 11.3l6.8-2.6 3 14.6z"/></defs><clipPath id="D"><use xlink:href="#C"/></clipPath><path d="M12.7 11.3l6.8-2.6 3 14.6z" clip-path="url(#D)" fill="#666"/><g fill="#fff"><path transform="matrix(.8018 -.5976 .5976 .8018 -6.1579 14.1458)" d="M18.1 9.2h.4v14.2h-.4z" clip-path="url(#D)"/><path transform="matrix(.8018 -.5976 .5976 .8018 -4.9131 13.733)" d="M18.1 7.2h.4v14.2h-.4z" clip-path="url(#D)"/></g></svg>