<svg xmlns="http://www.w3.org/2000/svg" viewBox="0 0 45 45" fill="#fccf00"><path d="M38.7 17.2v2.6c2.1 1.4 3.3 3.1 3.3 4.8 0 2.1-1.9 4.2-5.2 5.8-3.8 1.9-8.9 3-14.4 3s-10.6-1.1-14.4-3c-3.2-1.7-5-3.8-5-5.8 0-1.9 1.6-3.8 4.4-5.4v-1.6c0-.4.1-.7.2-1-4.2 2-6.9 4.9-6.9 8 0 6.1 9.8 11 21.9 11s21.9-4.9 21.9-11c-.1-2.9-2.3-5.5-5.8-7.4zm-1.5-.6c-.5-2.7-4.5-5.9-7.8-7.1-.1 0-.3-.1-.4-.1s-.3 0-.4.1L9.7 16.4a1.3 1.3 0 0 0-.8 1.2v8.1c0 .7.6 1.3 1.3 1.3H36c.7 0 1.3-.6 1.3-1.3v-8.9c-.1-.1-.1-.2-.1-.2zm-1.7 8.6H10.6V18h24.9v7.2z"/></svg>