<svg xmlns="http://www.w3.org/2000/svg" viewBox="0 0 45 45"><path d="M44.7 28.1l-2.8-10.5a2.17 2.17 0 0 0-1.6-1.6c-.6-.1-1.2-.2-1.9-.2-2.8 0-5.5 1.3-7.4 3.6-.2-.3-.3-.6-.5-.9.8-1.4 1.4-2.9 2-4.3l.9-2.1c1-2.3 2.6-4.2 2.6-4.2l.2-.2-.1-.3c-.3-1.1-1.4-3.2-3.8-3-1.3.1-2.1 1.1-2.5 1.8-.6-.5-1.7-1.1-3-.6-1.6.6-2.1 2.9-2.1 3.2l-.1.6h.4s.8.1 1.3.3c1.2.4 1.1 1.4 1.1 1.5h0c-.1 1.3-.4 2.5-.8 3.6a12.2 12.2 0 0 0-1.7-.7v-.6a1.79 1.79 0 0 0-1.8-1.8h-1.3a1.79 1.79 0 0 0-1.8 1.8v.6c-.6.2-1.2.4-1.7.7-.4-1.1-.7-2.3-.8-3.6h0c0-.2-.1-1.2 1.1-1.5.5-.2 1.3-.3 1.3-.3l.6-.1-.1-.6c-.1-.3-.5-2.6-2.1-3.2-1.3-.5-2.4.1-3 .6-.4-.7-1.2-1.6-2.5-1.8-2.5-.3-3.6 1.8-3.8 3l-.2.4.2.2s1.6 1.9 2.7 4.3c.3.6.6 1.4.9 2.1.6 1.4 1.2 3 2 4.3-.2.3-.3.6-.5.9-1.9-2.3-4.6-3.6-7.4-3.6-.6 0-1.3.1-1.9.2a2.17 2.17 0 0 0-1.6 1.6L.3 28.1c-.2.7 0 1.3.4 1.9.4.5 1.1.9 1.7.9.2 0 .4 0 .5-.1.6-.2 1.2-.2 1.8-.2a6.83 6.83 0 0 1 4 1.3c.3.3 4.5 1.6 6.2 2-.1-.1-.3-.2-.4-.3-.4-.4-.7-.8-.8-1.3l-2.1-.7c.2-.3.4-.6.5-.9l1.6-5.9c.4.9 1.1 2.1 2.1 3.1.3.3.6.6.9.8-.5.1-.9.3-1.3.5-.5.4-.8.9-.9 1.4-.1.8.1 1.5.5 2 0 .1.1.1.2.2.5.5 1.4.9 2.5 1h.5c.5 0 1.1-.1 1.6-.2-.3.3-.6.6-.8 1-.1.2-.2.4-.3.7-.3 0-.5.2-.7.4L16.3 39c-.2.5 0 1.1.5 1.3l.9.3c.5.2 1.1-.1 1.2-.6l1-3.6c.1-.3 0-.5-.2-.7.1-.3.3-.7.6-1 .4-.5.9-.9 1.3-1.2.3-.2.5-.4.7-.5h0 0 0c.2.1.4.3.7.5.4.3.9.7 1.3 1.2.3.3.5.7.6 1-.2.2-.2.5-.2.7l1 3.6c.2.5.7.8 1.2.6l.9-.3c.5-.2.7-.8.5-1.3l-1.7-3.3c-.1-.3-.4-.4-.7-.4-.1-.2-.2-.5-.3-.7-.2-.4-.5-.7-.8-1 .5.1 1.1.2 1.6.2h.5c1.1-.1 2-.5 2.5-1l.2-.2c.5-.5.6-1.2.5-2-.1-.6-.4-1.1-.9-1.4-.3-.2-.8-.4-1.3-.5.3-.3.6-.6.9-.8 1-1.1 1.7-2.2 2.1-3.1l1.6 5.9c.1.3.3.7.5.9-.7.3-1.4.5-2.1.7-.2.5-.5.9-.8 1.3-.1.1-.3.2-.4.3 1.7-.4 5.8-1.8 6.2-2a6.83 6.83 0 0 1 4-1.3c.6 0 1.2.1 1.8.2.2 0 .4.1.5.1.7 0 1.3-.3 1.7-.9.9-.5 1-1.2.8-1.9zM12.9 21l-2.5 9.1c-.1.2-.3.3-.4.3s-.2 0-.3-.1c-.2-.1-.3-.2-.5-.4-1.3-.8-2.9-1.3-4.5-1.3-.8 0-1.5.1-2.2.3h-.1a.76.76 0 0 1-.4-.2c0-.1-.1-.2-.1-.4l2.8-10.5c0-.2.2-.3.3-.3.5-.1 1-.2 1.5-.2 2.4 0 4.6 1.1 6.2 3.1.2.4.2.5.2.6zm8.5-7.4a.47.47 0 0 1 .5-.5h1.3a.47.47 0 0 1 .5.5v2.1h-2.2v-2.1zm-7.8.2l-.9-2.2c-.9-2.1-2.2-3.7-2.6-4.3.2-.6.9-2 2.5-1.8 1.4.2 1.9 1.8 1.9 1.8l.3 1.1.7-.9s1-1.3 2.3-.9c.6.2 1 1.1 1.2 1.8-.3.1-.6.1-.9.2-1.7.6-2 2-1.9 2.8.1 1.4.5 2.8 1 4.1.4.8.8 1.6 1.3 2.2.6.8 1.9 2.1 3.6 2.1h.1.1.1c1.7 0 3-1.3 3.6-2.1.5-.6.9-1.4 1.3-2.2.5-1.2.9-2.6 1-4.1.1-.8-.2-2.2-1.9-2.8-.3-.1-.6-.2-.9-.2.2-.7.6-1.6 1.2-1.8 1.3-.5 2.3.8 2.3.9l.7.9.3-1.1s.5-1.7 1.9-1.8c1.7-.2 2.3 1.2 2.5 1.8-.5.6-1.7 2.3-2.6 4.3l-.9 2.2-1.6 3.7-1.2 1.9c-.5.7-1.1 1.3-1.8 1.7-.3.2-.7.5-1 .6-.6.3-1.1.5-1.7.6-.4.1-.8.1-1.3.1h0-.1-.1 0 0 0-.1-.1 0c-.5 0-.9 0-1.3-.1-.6-.1-1.1-.3-1.7-.6-.4-.2-.7-.4-1-.6-.6-.5-1.2-1-1.8-1.7-.4-.6-.9-1.2-1.2-1.9-.3-1.2-.8-2.5-1.3-3.7zm4.3 18.8c-.8-.1-1.5-.4-1.8-.7s-.4-.7-.3-1.1c0-.2.2-.4.4-.6.4-.2.9-.4 1.5-.4.4 0 .8.1 1.3.2 1.5.3 2.5 1.1 2.8 1.5-1 .5-2.7 1.3-3.9 1.1zm11-2.4c.2.2.4.4.4.6.1.5-.1.8-.3 1.1-.4.3-1 .6-1.8.7-1.3.2-2.9-.6-3.8-1.2.4-.4 1.3-1.1 2.8-1.5.4-.1.9-.2 1.3-.2.5.1 1 .2 1.4.5zm-1.1-2.7c-.5.4-1 .8-1.6 1.1 0 0-.1 0-.1.1h-.2c-1.4.3-2.6 1-3.3 1.7h0 0 0 0c-.7-.7-1.9-1.4-3.3-1.7h-.2l-.1-.1c-.6-.3-1.1-.7-1.6-1.1-1.1-1-1.9-2.3-2.4-3.3 1.7 1.8 4.5 2.9 7.7 2.9s6-1.2 7.7-2.9c-.7 1-1.5 2.3-2.6 3.3zM43 28.9c-.1.1-.2.2-.4.2h-.1a8.33 8.33 0 0 0-2.2-.3c-1.6 0-3.2.4-4.5 1.3-.2.1-.4.2-.5.4-.1.1-.2.1-.3.1-.2 0-.4-.1-.4-.3L32.1 21c0-.1 0-.3.1-.4 1.6-1.9 3.8-3.1 6.2-3.1.5 0 1 .1 1.5.2.2 0 .3.2.3.3L43 28.5c.1.2.1.4 0 .4z" fill="#1dade5"/></svg>