<svg xmlns="http://www.w3.org/2000/svg" viewBox="0 0 45 45"><path d="M40.2 33.1L32 22.9v13.7H13V22.9L4.8 33.1.7 29.5 13 11h4.4V8.4h10.8V11H32l12.3 18.5-4.1 3.6zM22.5 17a1.11 1.11 0 0 0 1.1-1.1 1.11 1.11 0 0 0-1.1-1.1 1.11 1.11 0 0 0-1.1 1.1 1.11 1.11 0 0 0 1.1 1.1zm0 5.2a1.11 1.11 0 0 0 1.1-1.1 1.11 1.11 0 0 0-1.1-1.1 1.11 1.11 0 0 0-1.1 1.1 1.11 1.11 0 0 0 1.1 1.1zm0 5.6a1.11 1.11 0 0 0 1.1-1.1 1.11 1.11 0 0 0-1.1-1.1 1.11 1.11 0 0 0-1.1 1.1 1.11 1.11 0 0 0 1.1 1.1zm0 5.2a1.11 1.11 0 0 0 1.1-1.1 1.11 1.11 0 0 0-1.1-1.1 1.11 1.11 0 0 0-1.1 1.1 1.11 1.11 0 0 0 1.1 1.1z" fill="#666"/></svg>