<svg xmlns="http://www.w3.org/2000/svg" viewBox="0 0 45 45"><path d="M35.5 38.9l-5.7-9.1 1-1c.2-.2.3-.4.3-.7s-.1-.5-.3-.7l-.4-.4 3.2-1.9c1-.6 1.6-2 1.4-3.1-.4-1.7-1-5.7-3.4-9-1.6-2.2-3.5-3.3-5.1-4V7.7c0-1-.5-1.8-1.3-2.3l1.3-2c.3-.4.2-1-.3-1.2-.4-.3-1-.2-1.2.3l-1.7 2.6h-.1V1.3c0-.5-.4-.9-.9-.9s-.9.4-.9.9v3.6h-.1l-1.7-2.6c-.3-.4-.8-.5-1.2-.3-.4.3-.5.8-.3 1.2l1.3 2c-.8.5-1.3 1.3-1.3 2.3V9c-1.6.6-3.5 1.8-5.1 4-2.4 3.2-3 7.2-3.4 9-.2 1.1.3 2.6 1.4 3.1l3.2 1.9c-.1.1-.3.2-.4.4-.4.4-.4 1 0 1.4l1 1-5.7 9.1c-1.5 2.5.2 5.7 3.2 5.7h19.6c3.3 0 5.1-3.2 3.6-5.7zm-14.4-32h2.7c.4 0 .8.3.8.8v2h-4.3v-2c.1-.5.4-.8.8-.8zM14.6 18h.2c3.3 0 6.2-1.7 7.7-4.3 1.4 2.6 4.3 4.3 7.7 4.3h.2c0 .3.1.6.1.9 0 2.5-1.1 4.7-2.9 6.1-3.2-1.5-6.9-1.5-10.1 0-1.8-1.5-2.9-3.7-2.9-6.1V18zm14.2 10.1l-6.3 6.3-6.3-6.3c3.7-3 8.9-3 12.6 0z" fill="#ef8d93"/></svg>