<svg xmlns="http://www.w3.org/2000/svg" viewBox="0 0 45 45" fill="#fff"><path d="M20.4 18.9h-.1c-.4-.1-1.4-.5-3.4-3.1-2.7-3.6-1.6-7.5-1.5-7.6.1-.3.4-.6.7-.6h.2c.4.1.6.6.5 1 0 .1-.9 3.3 1.3 6.3.2.3.5.6.7.9l.4.5v-.7c0-1.4.3-2.5 1-3.1.2-.2.4-.3.7-.3.2 0 .4.1.6.2s.4.3.6.5c.3.3.8.7 1.4 1.2l.3.2.2-.3c.2-.7.3-1.9.5-3.5l.5-3c.1-.4.4-.6.8-.6h.2c.4.1.7.5.6.9 0 0-.3 1.2-.5 2.9-.5 4-.8 5.1-1.5 5.4-.1.1-.3.1-.4.1-.2 0-.4-.1-.6-.2-1.1-.7-1.8-1.3-2.2-1.7L21 14v.5c-.2 1 0 2.5.2 3.5.1.3 0 .5-.2.7-.1.1-.3.2-.6.2z"/><circle cx="15.3" cy="23.7" r="1.6"/><circle cx="29.7" cy="23.7" r="1.6"/><path d="M43.3 24.1C44.4 23 45 21.5 45 20s-.6-3-1.7-4.1c-.9-.9-2-1.5-3.3-1.7-1.2-3.2-3.5-6.1-6.4-8.1-3.2-2.3-7.1-3.4-11.1-3.4s-7.9 1.2-11.1 3.4C8.5 8.1 6.2 11 5 14.2a6.19 6.19 0 0 0-3.3 1.7A5.66 5.66 0 0 0 0 20c0 1.5.6 3 1.7 4.1.9.9 2 1.5 3.3 1.7.2.5.4 1.1.7 1.6-.1.1-.2.2-.3.4-.7.7-1.5 1.6-1.5 2.8s.8 2.1 1.5 2.8c.3.3.6.6.8.9.1.2.2.6.4 1.1.2.9.5 2 1.4 2.7.7.6 1.7.7 2.5.8.5 0 1.1.1 1.4.3.3.1.6.5.9.8.6.6 1.2 1.3 2.2 1.6.2.1.5.1.8.1.6 0 1.2-.2 1.7-.3s.9-.2 1.2-.2h.2c.3 0 .8.3 1.2.5.7.4 1.5.9 2.5.9s1.8-.5 2.5-.9c.4-.2.9-.5 1.2-.5h.2c.3 0 .8.1 1.2.2.6.2 1.1.3 1.7.3.3 0 .6 0 .8-.1 1-.3 1.6-1 2.2-1.6.3-.3.7-.7.9-.8.3-.2.9-.2 1.4-.3.8-.1 1.8-.2 2.5-.8.9-.7 1.2-1.8 1.4-2.7.1-.4.2-.8.4-1.1s.5-.6.8-.9c.7-.7 1.5-1.6 1.5-2.8s-.8-2.1-1.5-2.8c-.1-.1-.2-.2-.3-.4.3-.5.5-1 .7-1.6 1.1-.2 2.2-.8 3.1-1.7zm-4.4 6.4c0 .3-.5.8-.9 1.2s-.8.8-1.1 1.3-.5 1.1-.6 1.7c-.2.6-.3 1.2-.6 1.5-.2.2-.8.2-1.3.3-.7.1-1.4.1-2.2.5-.7.3-1.1.8-1.6 1.3-.4.4-.8.9-1.2 1h-.2c-.3 0-.7-.1-1.2-.2s-1.2-.3-1.8-.3h-.4c-.8.1-1.4.5-2 .8-.5.3-1 .6-1.4.6s-.9-.3-1.4-.6c-.6-.3-1.3-.7-2-.8h-.4c-.6 0-1.3.2-1.8.3-.4.1-.8.2-1.2.2h-.2c-.4-.1-.8-.5-1.2-1-.5-.5-.9-1-1.6-1.3s-1.5-.4-2.2-.5c-.5 0-1.1-.1-1.3-.3-.3-.3-.5-.9-.6-1.5s-.3-1.1-.6-1.7c-.3-.5-.7-.9-1.1-1.3s-.9-.9-.9-1.2.4-.7.8-1.1c1.2 1.7 2.7 3.3 4.5 4.5 3.2 2.3 7.1 3.4 11.1 3.4s7.9-1.2 11.1-3.4c1.8-1.2 3.3-2.8 4.5-4.5.6.4 1 .8 1 1.1zm.3-6.8h-.8l-.2.7v.1c-.4 1.1-.8 2.1-1.4 3-2.9 4.7-8.2 7.7-14.3 7.7-6 0-11.4-3-14.3-7.7-.6-.9-1-1.9-1.4-3v-.1l-.2-.7h-.8c-2-.1-3.6-1.7-3.6-3.7s1.6-3.6 3.6-3.7h.8l.2-.7C8.9 9.1 15.2 4.8 22.5 4.8s13.6 4.3 15.7 10.7l.2.7h.8c2 .1 3.6 1.7 3.6 3.7a3.76 3.76 0 0 1-3.6 3.8zm-16.7 8.9c-2.1 0-3.8-1.8-3.8-4.1a.47.47 0 0 1 .5-.5h6.5a.47.47 0 0 1 .5.5c.1 2.2-1.6 4.1-3.7 4.1zM19.8 29c.2 1.4 1.3 2.6 2.7 2.6s2.5-1.1 2.7-2.6h-5.4z"/></svg>